<mxfile host="app.diagrams.net" agent="Mozilla/5.0 (Windows NT 10.0; Win64; x64) AppleWebKit/537.36 (KHTML, like Gecko) Chrome/136.0.0.0 Safari/537.36" version="27.1.1">
  <diagram name="Page-1" id="qXrZTFCvtwW7i7V_GIq-">
    <mxGraphModel dx="1572" dy="930" grid="0" gridSize="10" guides="1" tooltips="1" connect="1" arrows="1" fold="1" page="1" pageScale="1" pageWidth="3300" pageHeight="4681" math="0" shadow="0">
      <root>
        <mxCell id="0" />
        <mxCell id="1" parent="0" />
        <mxCell id="HpIDxn4vImvm4f1of4Lk-1" value="&lt;font style=&quot;font-size: 16px; color: rgb(126, 166, 224);&quot;&gt;数列&lt;/font&gt;" style="rounded=0;whiteSpace=wrap;html=1;strokeColor=none;" vertex="1" parent="1">
          <mxGeometry x="444" y="269" width="120" height="60" as="geometry" />
        </mxCell>
        <mxCell id="HpIDxn4vImvm4f1of4Lk-2" value="&lt;font style=&quot;font-size: 16px; color: rgb(151, 208, 119);&quot;&gt;函数&lt;/font&gt;" style="rounded=0;whiteSpace=wrap;html=1;strokeColor=none;" vertex="1" parent="1">
          <mxGeometry x="1080" y="269" width="120" height="60" as="geometry" />
        </mxCell>
        <mxCell id="HpIDxn4vImvm4f1of4Lk-3" value="&lt;span style=&quot;font-size: 16px;&quot;&gt;&lt;font&gt;极限&lt;/font&gt;&lt;/span&gt;" style="rounded=0;whiteSpace=wrap;html=1;strokeColor=none;" vertex="1" parent="1">
          <mxGeometry x="380" y="469" width="120" height="60" as="geometry" />
        </mxCell>
        <mxCell id="HpIDxn4vImvm4f1of4Lk-4" value="&lt;span style=&quot;font-size: 16px;&quot;&gt;&lt;font style=&quot;color: rgb(255, 179, 102);&quot;&gt;级数&lt;/font&gt;&lt;/span&gt;" style="rounded=0;whiteSpace=wrap;html=1;strokeColor=none;" vertex="1" parent="1">
          <mxGeometry x="653" y="479" width="120" height="60" as="geometry" />
        </mxCell>
      </root>
    </mxGraphModel>
  </diagram>
</mxfile>
